<mxfile host="app.diagrams.net" agent="Mozilla/5.0 (Windows NT 10.0; Win64; x64) AppleWebKit/537.36 (KHTML, like Gecko) Chrome/131.0.0.0 Safari/537.36 OPR/116.0.0.0" version="26.0.16">
  <diagram name="Page-1" id="va8hHvguO5Iv0ZEOROM0">
    <mxGraphModel dx="2284" dy="834" grid="1" gridSize="10" guides="1" tooltips="1" connect="1" arrows="1" fold="1" page="1" pageScale="1" pageWidth="850" pageHeight="1100" math="0" shadow="0">
      <root>
        <mxCell id="0" />
        <mxCell id="1" parent="0" />
        <mxCell id="fb7tlVRnbw5OtTVGS75J-1" style="edgeStyle=orthogonalEdgeStyle;rounded=0;orthogonalLoop=1;jettySize=auto;html=1;exitX=0.5;exitY=1;exitDx=0;exitDy=0;entryX=0;entryY=0.5;entryDx=0;entryDy=0;" edge="1" parent="1" source="fb7tlVRnbw5OtTVGS75J-2" target="fb7tlVRnbw5OtTVGS75J-7">
          <mxGeometry relative="1" as="geometry" />
        </mxCell>
        <mxCell id="fb7tlVRnbw5OtTVGS75J-2" value="&lt;font style=&quot;font-size: 18px;&quot;&gt;distance.csv&lt;/font&gt;" style="rounded=1;whiteSpace=wrap;html=1;" vertex="1" parent="1">
          <mxGeometry x="40" y="100" width="210" height="60" as="geometry" />
        </mxCell>
        <mxCell id="fb7tlVRnbw5OtTVGS75J-3" style="edgeStyle=orthogonalEdgeStyle;rounded=0;orthogonalLoop=1;jettySize=auto;html=1;exitX=0.5;exitY=1;exitDx=0;exitDy=0;" edge="1" parent="1" source="fb7tlVRnbw5OtTVGS75J-4" target="fb7tlVRnbw5OtTVGS75J-7">
          <mxGeometry relative="1" as="geometry" />
        </mxCell>
        <mxCell id="fb7tlVRnbw5OtTVGS75J-4" value="&lt;font style=&quot;font-size: 18px;&quot;&gt;order_large.csv&lt;/font&gt;" style="rounded=1;whiteSpace=wrap;html=1;" vertex="1" parent="1">
          <mxGeometry x="310" y="100" width="210" height="60" as="geometry" />
        </mxCell>
        <mxCell id="fb7tlVRnbw5OtTVGS75J-5" style="edgeStyle=orthogonalEdgeStyle;rounded=0;orthogonalLoop=1;jettySize=auto;html=1;exitX=0.5;exitY=1;exitDx=0;exitDy=0;entryX=1;entryY=0.5;entryDx=0;entryDy=0;" edge="1" parent="1" source="fb7tlVRnbw5OtTVGS75J-6" target="fb7tlVRnbw5OtTVGS75J-7">
          <mxGeometry relative="1" as="geometry" />
        </mxCell>
        <mxCell id="fb7tlVRnbw5OtTVGS75J-6" value="&lt;font style=&quot;font-size: 18px;&quot;&gt;truck_specifications.csv&lt;/font&gt;" style="rounded=1;whiteSpace=wrap;html=1;" vertex="1" parent="1">
          <mxGeometry x="570" y="100" width="210" height="60" as="geometry" />
        </mxCell>
        <mxCell id="fb7tlVRnbw5OtTVGS75J-7" value="&lt;font style=&quot;font-size: 18px;&quot;&gt;DataProcessor&lt;/font&gt;" style="rounded=1;whiteSpace=wrap;html=1;" vertex="1" parent="1">
          <mxGeometry x="310" y="250" width="210" height="60" as="geometry" />
        </mxCell>
        <mxCell id="fb7tlVRnbw5OtTVGS75J-8" style="edgeStyle=orthogonalEdgeStyle;rounded=0;orthogonalLoop=1;jettySize=auto;html=1;entryX=0.5;entryY=0;entryDx=0;entryDy=0;" edge="1" parent="1" source="fb7tlVRnbw5OtTVGS75J-9" target="fb7tlVRnbw5OtTVGS75J-22">
          <mxGeometry relative="1" as="geometry" />
        </mxCell>
        <mxCell id="fb7tlVRnbw5OtTVGS75J-9" value="&lt;span style=&quot;font-size: 18px;&quot;&gt;Distance Matrix Generator&lt;/span&gt;" style="rounded=1;whiteSpace=wrap;html=1;" vertex="1" parent="1">
          <mxGeometry x="-90" y="460" width="210" height="60" as="geometry" />
        </mxCell>
        <mxCell id="fb7tlVRnbw5OtTVGS75J-10" style="edgeStyle=orthogonalEdgeStyle;rounded=0;orthogonalLoop=1;jettySize=auto;html=1;entryX=0.5;entryY=0;entryDx=0;entryDy=0;" edge="1" parent="1" source="fb7tlVRnbw5OtTVGS75J-11" target="fb7tlVRnbw5OtTVGS75J-23">
          <mxGeometry relative="1" as="geometry" />
        </mxCell>
        <mxCell id="fb7tlVRnbw5OtTVGS75J-11" value="&lt;font style=&quot;font-size: 18px;&quot;&gt;Cost Calculator&lt;/font&gt;" style="rounded=1;whiteSpace=wrap;html=1;" vertex="1" parent="1">
          <mxGeometry x="160" y="460" width="210" height="60" as="geometry" />
        </mxCell>
        <mxCell id="fb7tlVRnbw5OtTVGS75J-12" style="edgeStyle=orthogonalEdgeStyle;rounded=0;orthogonalLoop=1;jettySize=auto;html=1;exitX=0.5;exitY=1;exitDx=0;exitDy=0;entryX=0.5;entryY=0;entryDx=0;entryDy=0;" edge="1" parent="1" source="fb7tlVRnbw5OtTVGS75J-13" target="fb7tlVRnbw5OtTVGS75J-24">
          <mxGeometry relative="1" as="geometry" />
        </mxCell>
        <mxCell id="fb7tlVRnbw5OtTVGS75J-13" value="&lt;font style=&quot;font-size: 18px;&quot;&gt;Time Window Processor&lt;/font&gt;" style="rounded=1;whiteSpace=wrap;html=1;" vertex="1" parent="1">
          <mxGeometry x="490" y="460" width="210" height="60" as="geometry" />
        </mxCell>
        <mxCell id="fb7tlVRnbw5OtTVGS75J-14" style="edgeStyle=orthogonalEdgeStyle;rounded=0;orthogonalLoop=1;jettySize=auto;html=1;exitX=0.5;exitY=1;exitDx=0;exitDy=0;entryX=0.5;entryY=0;entryDx=0;entryDy=0;" edge="1" parent="1" source="fb7tlVRnbw5OtTVGS75J-15" target="fb7tlVRnbw5OtTVGS75J-25">
          <mxGeometry relative="1" as="geometry" />
        </mxCell>
        <mxCell id="fb7tlVRnbw5OtTVGS75J-15" value="&lt;span style=&quot;font-size: 18px;&quot;&gt;Vehicle Capacity Handler&lt;/span&gt;" style="rounded=1;whiteSpace=wrap;html=1;" vertex="1" parent="1">
          <mxGeometry x="740" y="460" width="210" height="60" as="geometry" />
        </mxCell>
        <mxCell id="fb7tlVRnbw5OtTVGS75J-16" value="" style="endArrow=none;html=1;rounded=0;entryX=0.5;entryY=1;entryDx=0;entryDy=0;" edge="1" parent="1" target="fb7tlVRnbw5OtTVGS75J-7">
          <mxGeometry width="50" height="50" relative="1" as="geometry">
            <mxPoint x="415" y="390" as="sourcePoint" />
            <mxPoint x="360" y="440" as="targetPoint" />
          </mxGeometry>
        </mxCell>
        <mxCell id="fb7tlVRnbw5OtTVGS75J-17" value="" style="endArrow=none;html=1;rounded=0;" edge="1" parent="1">
          <mxGeometry width="50" height="50" relative="1" as="geometry">
            <mxPoint y="390" as="sourcePoint" />
            <mxPoint x="850" y="390" as="targetPoint" />
          </mxGeometry>
        </mxCell>
        <mxCell id="fb7tlVRnbw5OtTVGS75J-18" value="" style="endArrow=classic;html=1;rounded=0;entryX=0.426;entryY=-0.036;entryDx=0;entryDy=0;entryPerimeter=0;" edge="1" parent="1" target="fb7tlVRnbw5OtTVGS75J-9">
          <mxGeometry width="50" height="50" relative="1" as="geometry">
            <mxPoint y="390" as="sourcePoint" />
            <mxPoint x="380" y="370" as="targetPoint" />
          </mxGeometry>
        </mxCell>
        <mxCell id="fb7tlVRnbw5OtTVGS75J-19" value="" style="endArrow=classic;html=1;rounded=0;entryX=0.478;entryY=0.014;entryDx=0;entryDy=0;entryPerimeter=0;" edge="1" parent="1" target="fb7tlVRnbw5OtTVGS75J-11">
          <mxGeometry width="50" height="50" relative="1" as="geometry">
            <mxPoint x="260" y="390" as="sourcePoint" />
            <mxPoint x="304.5" y="460" as="targetPoint" />
          </mxGeometry>
        </mxCell>
        <mxCell id="fb7tlVRnbw5OtTVGS75J-20" value="" style="endArrow=classic;html=1;rounded=0;entryX=0.52;entryY=-0.007;entryDx=0;entryDy=0;entryPerimeter=0;" edge="1" parent="1" target="fb7tlVRnbw5OtTVGS75J-13">
          <mxGeometry width="50" height="50" relative="1" as="geometry">
            <mxPoint x="599" y="392" as="sourcePoint" />
            <mxPoint x="594.5" y="460" as="targetPoint" />
          </mxGeometry>
        </mxCell>
        <mxCell id="fb7tlVRnbw5OtTVGS75J-21" value="" style="endArrow=classic;html=1;rounded=0;entryX=0.426;entryY=-0.036;entryDx=0;entryDy=0;entryPerimeter=0;" edge="1" parent="1">
          <mxGeometry width="50" height="50" relative="1" as="geometry">
            <mxPoint x="850" y="392" as="sourcePoint" />
            <mxPoint x="849" y="460" as="targetPoint" />
          </mxGeometry>
        </mxCell>
        <mxCell id="fb7tlVRnbw5OtTVGS75J-22" value="&lt;span style=&quot;font-size: 18px;&quot;&gt;Distance Matrix&amp;nbsp;&lt;/span&gt;" style="rounded=1;whiteSpace=wrap;html=1;" vertex="1" parent="1">
          <mxGeometry x="-90" y="640" width="210" height="60" as="geometry" />
        </mxCell>
        <mxCell id="fb7tlVRnbw5OtTVGS75J-23" value="&lt;font style=&quot;font-size: 18px;&quot;&gt;Cost Matrix&lt;/font&gt;" style="rounded=1;whiteSpace=wrap;html=1;" vertex="1" parent="1">
          <mxGeometry x="160" y="640" width="210" height="60" as="geometry" />
        </mxCell>
        <mxCell id="fb7tlVRnbw5OtTVGS75J-24" value="&lt;font style=&quot;font-size: 18px;&quot;&gt;Time Window&amp;nbsp;&lt;/font&gt;" style="rounded=1;whiteSpace=wrap;html=1;" vertex="1" parent="1">
          <mxGeometry x="490" y="640" width="210" height="60" as="geometry" />
        </mxCell>
        <mxCell id="fb7tlVRnbw5OtTVGS75J-25" value="&lt;span style=&quot;font-size: 18px;&quot;&gt;Vehicle Constraints&lt;/span&gt;" style="rounded=1;whiteSpace=wrap;html=1;" vertex="1" parent="1">
          <mxGeometry x="740" y="640" width="210" height="60" as="geometry" />
        </mxCell>
        <mxCell id="fb7tlVRnbw5OtTVGS75J-26" value="&lt;font style=&quot;font-size: 18px;&quot;&gt;Route Creator&lt;/font&gt;" style="rounded=1;whiteSpace=wrap;html=1;" vertex="1" parent="1">
          <mxGeometry x="330" y="940" width="210" height="60" as="geometry" />
        </mxCell>
        <mxCell id="fb7tlVRnbw5OtTVGS75J-27" style="edgeStyle=orthogonalEdgeStyle;rounded=0;orthogonalLoop=1;jettySize=auto;html=1;exitX=0.5;exitY=1;exitDx=0;exitDy=0;entryX=0.5;entryY=0;entryDx=0;entryDy=0;" edge="1" parent="1" source="fb7tlVRnbw5OtTVGS75J-28" target="fb7tlVRnbw5OtTVGS75J-26">
          <mxGeometry relative="1" as="geometry" />
        </mxCell>
        <mxCell id="fb7tlVRnbw5OtTVGS75J-28" value="&lt;font style=&quot;font-size: 18px;&quot;&gt;Optimized Route&lt;/font&gt;" style="rounded=1;whiteSpace=wrap;html=1;" vertex="1" parent="1">
          <mxGeometry x="330" y="810" width="210" height="60" as="geometry" />
        </mxCell>
        <mxCell id="fb7tlVRnbw5OtTVGS75J-29" value="" style="endArrow=none;html=1;rounded=0;exitX=0.5;exitY=1;exitDx=0;exitDy=0;" edge="1" parent="1">
          <mxGeometry width="50" height="50" relative="1" as="geometry">
            <mxPoint x="20" y="700" as="sourcePoint" />
            <mxPoint x="20" y="760" as="targetPoint" />
          </mxGeometry>
        </mxCell>
        <mxCell id="fb7tlVRnbw5OtTVGS75J-30" value="" style="endArrow=none;html=1;rounded=0;exitX=0.5;exitY=1;exitDx=0;exitDy=0;" edge="1" parent="1">
          <mxGeometry width="50" height="50" relative="1" as="geometry">
            <mxPoint x="264.76" y="700" as="sourcePoint" />
            <mxPoint x="264.76" y="760" as="targetPoint" />
          </mxGeometry>
        </mxCell>
        <mxCell id="fb7tlVRnbw5OtTVGS75J-31" value="" style="endArrow=none;html=1;rounded=0;exitX=0.5;exitY=1;exitDx=0;exitDy=0;" edge="1" parent="1">
          <mxGeometry width="50" height="50" relative="1" as="geometry">
            <mxPoint x="594.76" y="700" as="sourcePoint" />
            <mxPoint x="594.76" y="760" as="targetPoint" />
          </mxGeometry>
        </mxCell>
        <mxCell id="fb7tlVRnbw5OtTVGS75J-32" value="" style="endArrow=none;html=1;rounded=0;exitX=0.5;exitY=1;exitDx=0;exitDy=0;" edge="1" parent="1">
          <mxGeometry width="50" height="50" relative="1" as="geometry">
            <mxPoint x="850" y="700" as="sourcePoint" />
            <mxPoint x="850" y="760" as="targetPoint" />
          </mxGeometry>
        </mxCell>
        <mxCell id="fb7tlVRnbw5OtTVGS75J-33" value="" style="endArrow=none;html=1;rounded=0;" edge="1" parent="1">
          <mxGeometry width="50" height="50" relative="1" as="geometry">
            <mxPoint x="20" y="760" as="sourcePoint" />
            <mxPoint x="850" y="760" as="targetPoint" />
          </mxGeometry>
        </mxCell>
        <mxCell id="fb7tlVRnbw5OtTVGS75J-34" value="" style="endArrow=classic;html=1;rounded=0;entryX=0.522;entryY=0.006;entryDx=0;entryDy=0;entryPerimeter=0;" edge="1" parent="1">
          <mxGeometry width="50" height="50" relative="1" as="geometry">
            <mxPoint x="435.04" y="759.64" as="sourcePoint" />
            <mxPoint x="434.6599999999999" y="809.9999999999999" as="targetPoint" />
          </mxGeometry>
        </mxCell>
      </root>
    </mxGraphModel>
  </diagram>
</mxfile>
